<?xml version="1.0" encoding="UTF-8"?>
<svg width="21px" height="21px" viewBox="0 0 21 21" version="1.1" xmlns="http://www.w3.org/2000/svg" xmlns:xlink="http://www.w3.org/1999/xlink">
    <!-- Generator: Sketch 53.2 (72643) - https://sketchapp.com -->
    <title>Calendar Icon White</title>
    <desc>Created with Sketch.</desc>
    <g id="Page-1" stroke="none" stroke-width="1" fill="none" fill-rule="evenodd" opacity="0.7">
        <g id="5" transform="translate(-30.000000, -231.000000)" fill="#343A54">
            <g id="Calendar-Icon-P" transform="translate(30.000000, 231.000000)">
                <path d="M18.8573581,18.7766216 L1.32489646,18.7766216 L1.32489646,5.01496191 L3.98399081,5.01496191 L3.98399081,8.36943158 C3.98399081,8.73516402 4.28052057,9.03169378 4.64625301,9.03169378 C5.01235751,9.03169378 5.30851522,8.73516402 5.30851522,8.36943158 L5.30851522,5.01496191 L14.8733673,5.01496191 L14.8733673,8.36943158 C14.8733673,8.73516402 15.169897,9.03169378 15.5356295,9.03169378 C15.901734,9.03169378 16.1982637,8.73516402 16.1982637,8.36943158 L16.1982637,5.01496191 L18.8573581,5.01496191 L18.8573581,18.7766216 Z M19.5196203,3.69043751 L16.1982637,3.69043751 L16.1982637,0.662262201 C16.1982637,0.296529761 15.901734,-2.84217094e-14 15.5356295,-2.84217094e-14 C15.169897,-2.84217094e-14 14.8733673,0.296529761 14.8733673,0.662262201 L14.8733673,3.69043751 L5.30851522,3.69043751 L5.30851522,0.662262201 C5.30851522,0.296529761 5.01235751,-2.84217094e-14 4.64625301,-2.84217094e-14 C4.28052057,-2.84217094e-14 3.98399081,0.296529761 3.98399081,0.662262201 L3.98399081,3.69043751 L0.662634258,3.69043751 C0.296529761,3.69043751 8.17124146e-14,3.98696727 8.17124146e-14,4.35269971 L8.17124146e-14,19.4388838 C8.17124146e-14,19.8049883 0.296529761,20.1015181 0.662634258,20.1015181 L19.5196203,20.1015181 C19.8857248,20.1015181 20.1822545,19.8049883 20.1822545,19.4388838 L20.1822545,4.35269971 C20.1822545,3.98696727 19.8857248,3.69043751 19.5196203,3.69043751 L19.5196203,3.69043751 Z" id="Fill-1"></path>
            </g>
        </g>
    </g>
</svg>