<?xml version="1.0" encoding="UTF-8"?>
<svg width="20px" height="20px" viewBox="0 0 20 20" version="1.1" xmlns="http://www.w3.org/2000/svg" xmlns:xlink="http://www.w3.org/1999/xlink">
    <!-- Generator: Sketch 53.2 (72643) - https://sketchapp.com -->
    <title>iconfinder_clock_1814097</title>
    <desc>Created with Sketch.</desc>
    <g id="Page-1" stroke="none" stroke-width="1" fill="none" fill-rule="evenodd">
        <g id="iconfinder_clock_1814097" fill="#343a54" fill-rule="nonzero">
            <path d="M9.95652174,19.9565217 C4.47826087,19.9565217 0,15.4782609 0,10 C0,4.52173913 4.47826087,0.0434782609 9.95652174,0.0434782609 C15.4347826,0.0434782609 19.9130435,4.52173913 19.9130435,10 C19.9565217,15.4782609 15.4782609,19.9565217 9.95652174,19.9565217 L9.95652174,19.9565217 Z M9.95652174,1.08695652 C5.04347826,1.08695652 1.08695652,5.08695652 1.08695652,9.95652174 C1.08695652,14.826087 5.08695652,18.826087 9.95652174,18.826087 C14.826087,18.826087 18.826087,14.826087 18.826087,9.95652174 C18.826087,5.08695652 14.8695652,1.08695652 9.95652174,1.08695652 L9.95652174,1.08695652 Z" id="Fill-131"></path>
            <polyline id="Fill-132" points="13.0869565 15.0869565 9.39130435 11.3913043 9.39130435 4.65217391 10.5652174 4.65217391 10.5652174 10.9130435 13.9130435 14.2608696 13.0869565 15.0869565"></polyline>
        </g>
    </g>
</svg>