<?xml version="1.0" encoding="UTF-8"?>
<svg width="176px" height="32px" viewBox="0 0 176 32" version="1.1" xmlns="http://www.w3.org/2000/svg" xmlns:xlink="http://www.w3.org/1999/xlink">
    <!-- Generator: Sketch 53.2 (72643) - https://sketchapp.com -->
    <title>Logo white</title>
    <desc>Created with Sketch.</desc>
    <g id="Page-1" stroke="none" stroke-width="1" fill="none" fill-rule="evenodd">
        <g id="1" transform="translate(-73.000000, -164.000000)" fill="#343A54">
            <g id="Logo-white-purple" transform="translate(73.000000, 164.000000)">
                <path d="M96.9986402,10.1481493 C93.2715263,10.1481493 90.2492407,13.8164776 90.2492407,18.3395821 C90.2492407,22.8647463 93.2715263,26.5330746 96.9986402,26.5330746 C100.725754,26.5330746 103.74804,22.8647463 103.74804,18.3395821 C103.74804,13.8164776 100.725754,10.1481493 96.9986402,10.1481493 L96.9986402,10.1481493 Z M109.103396,18.3395821 C109.103396,26.4939403 100.768133,30.3538209 97.9309763,31.4310448 C97.3242887,31.6617313 96.6596089,31.6802687 96.0395385,31.4804776 C93.1778466,30.5577313 84.8938844,27.1324478 84.8938844,18.3395821 C84.8938844,11.4684179 90.3139243,5.89898507 96.9986402,5.89898507 C103.685587,5.89898507 109.103396,11.4684179 109.103396,18.3395821 L109.103396,18.3395821 Z M71.9616245,0.488149254 L77.1586175,-3.55271368e-14 L77.1586175,22.9121194 C77.1586175,25.6700597 78.0106567,27.048 79.7125047,27.048 C80.1273719,27.048 80.8968838,26.9429552 82.0210402,26.7369851 L82.6455715,30.0242687 C82.614345,30.0242687 82.4782863,30.0675224 82.2351652,30.1581493 C81.996505,30.2467164 81.7154659,30.3352836 81.3965088,30.4259104 C80.5913095,30.6607164 79.614364,30.7822388 78.458981,30.7822388 C76.2441252,30.7822388 74.6069609,30.0901791 73.551949,28.7142985 C72.4924762,27.3363582 71.9616245,25.4311343 71.9616245,23.0027463 L71.9616245,0.488149254 Z M164.789288,0.488149254 L169.986281,-3.55271368e-14 L169.986281,22.9121194 C169.986281,25.6700597 170.836089,27.048 172.537937,27.048 C172.955035,27.048 173.724547,26.9429552 174.848703,26.7369851 L175.473234,30.0242687 C175.442008,30.0242687 175.303719,30.0675224 175.062828,30.1581493 C174.824168,30.2467164 174.543129,30.3352836 174.224172,30.4259104 C173.418972,30.6607164 172.442027,30.7822388 171.286644,30.7822388 C169.071788,30.7822388 167.434624,30.0901791 166.377382,28.7142985 C165.317909,27.3363582 164.789288,25.4311343 164.789288,23.0027463 L164.789288,0.488149254 Z M142.462292,18.9121791 C142.462292,21.7875224 142.937382,23.8616418 143.883101,25.1345373 C144.82882,26.4115522 146.200558,27.048 147.998316,27.048 C149.796074,27.048 151.199039,26.4609851 152.209442,25.2910746 C153.222075,24.1211642 153.726161,22.6773134 153.726161,20.9595224 L153.726161,10.2902687 C152.477098,9.90716418 151.045137,9.71355224 149.44143,9.71355224 C147.001296,9.71355224 145.232534,10.529194 144.123991,12.1584179 C143.017679,13.7876418 142.462292,16.0388955 142.462292,18.9121791 L142.462292,18.9121791 Z M158.923154,7.97928358 L158.923154,24.6031343 C158.923154,25.6391642 159.052521,26.3271045 159.311255,26.6690149 C159.565529,27.0109254 160.192291,27.1798209 161.184849,27.1798209 L161.3789,29.9810149 C160.575931,30.2467164 159.726123,30.380597 158.827244,30.380597 C156.326888,30.380597 154.834704,29.3301493 154.350692,27.2251343 C152.651075,29.5958507 150.141797,30.7822388 146.820628,30.7822388 C143.49946,30.7822388 141.0281,29.6391045 139.406549,27.3569552 C137.787229,25.0768657 136.975338,22.1356119 136.975338,18.5352537 C136.975338,14.9348955 138.083881,11.944209 140.298737,9.55701493 C142.511362,7.1718806 145.477886,5.97931343 149.202769,5.97931343 C150.710567,5.97931343 152.465946,6.19558209 154.473368,6.624 C156.476329,7.05447761 157.964052,7.50555224 158.923154,7.97928358 L158.923154,7.97928358 Z M125.361285,30.7822388 C121.685472,30.7822388 118.855007,29.6246866 116.865428,27.3137015 C114.87808,25.0006567 113.881061,22.0470448 113.881061,18.4466866 C113.881061,14.8463284 114.940534,11.868 117.059479,9.51170149 C119.178425,7.15746269 122.113722,5.97931343 125.867602,5.97931343 C129.012563,5.97931343 131.89879,6.60134328 134.530744,7.84540299 L133.08763,11.0914925 C130.904001,10.1728657 128.849739,9.71355224 126.927075,9.71355224 C124.359805,9.71355224 122.457214,10.4982985 121.221535,12.067791 C119.985855,13.6393433 119.368015,15.6104776 119.368015,17.9791343 C119.368015,24.0243582 121.904058,27.048 126.973914,27.048 C128.867583,27.048 130.841548,26.5433731 132.893579,25.5361791 L134.579814,28.6463284 C132.108454,30.0675224 129.034868,30.7822388 125.361285,30.7822388 L125.361285,30.7822388 Z M54.6219578,0.488149254 L59.8211812,-3.55271368e-14 L59.8211812,7.1821791 L67.2798699,7.1821791 L66.7021784,10.5559701 L59.8211812,10.5559701 L59.8211812,22.4692836 C59.8211812,24.0696716 60.0866071,25.2313433 60.6129978,25.9584179 C61.1438494,26.6834328 61.969123,27.048 63.0932794,27.048 C64.2174358,27.048 65.4843423,26.9285373 66.8962292,26.6916716 L67.522991,29.9357015 C65.5311821,30.498 63.6062873,30.7822388 61.7460761,30.7822388 C59.1475796,30.7822388 57.309673,30.1437313 56.2345869,28.8687761 C55.1595008,27.5958806 54.6219578,25.7874627 54.6219578,23.4476418 L54.6219578,10.5559701 L51.0130588,10.5559701 L51.0130588,7.1821791 L54.6219578,7.1821791 L54.6219578,0.488149254 Z M30.1291766,18.9121791 C30.1291766,21.7875224 30.602036,23.8616418 31.5477549,25.1345373 C32.4957043,26.4115522 33.8674428,27.048 35.6652009,27.048 C37.4607285,27.048 38.8659241,26.4609851 39.8763266,25.2910746 C40.8867291,24.1211642 41.3908151,22.6773134 41.3908151,20.9595224 L41.3908151,10.2902687 C40.1417524,9.90716418 38.7120217,9.71355224 37.1083144,9.71355224 C34.6704117,9.71355224 32.8971887,10.529194 31.7908761,12.1584179 C30.6845634,13.7876418 30.1291766,16.0388955 30.1291766,18.9121791 L30.1291766,18.9121791 Z M46.5900385,7.97928358 L46.5900385,24.6031343 C46.5900385,25.6391642 46.7171753,26.3271045 46.9759097,26.6690149 C47.2301832,27.0109254 47.856945,27.1798209 48.8517342,27.1798209 L49.045785,29.9810149 C48.2428161,30.2467164 47.3930074,30.380597 46.4941284,30.380597 C43.991542,30.380597 42.4993582,29.3301493 42.0175769,27.2251343 C40.315729,29.5958507 37.8064512,30.7822388 34.4852827,30.7822388 C31.1641143,30.7822388 28.6927545,29.6391045 27.0734339,27.3569552 C25.4518829,25.0768657 24.6422226,22.1356119 24.6422226,18.5352537 C24.6422226,14.9348955 25.7485353,11.944209 27.9633911,9.55701493 C30.1760164,7.1718806 33.1447708,5.97931343 36.8674237,5.97931343 C38.3752208,5.97931343 40.1306,6.19558209 42.1380222,6.624 C44.1432139,7.05447761 45.6287064,7.50555224 46.5900385,7.97928358 L46.5900385,7.97928358 Z M1.42108547e-14,30.2467164 L1.42108547e-14,-3.55271368e-14 L20.069761,-3.55271368e-14 L20.069761,4.1338209 L5.48695398,4.1338209 L5.48695398,12.067791 L18.1426357,12.067791 L18.1426357,15.9359104 L5.48695398,15.9359104 L5.48695398,26.1128955 L21.0310931,26.1128955 L21.0310931,30.2467164 L1.42108547e-14,30.2467164 Z" id="Fill-1"></path>
            </g>
        </g>
    </g>
</svg>