<svg xmlns="http://www.w3.org/2000/svg" width="176" height="32" viewBox="0 0 176 32">
    <path fill="#FFF" fill-rule="evenodd" d="M96.999 10.148c-3.727 0-6.75 3.668-6.75 8.192 0 4.525 3.023 8.193 6.75 8.193s6.749-3.668 6.749-8.193c0-4.524-3.022-8.192-6.75-8.192zm12.104 8.192c0 8.154-8.335 12.014-11.172 13.091-.607.23-1.271.25-1.891.05-2.862-.923-11.146-4.349-11.146-13.141 0-6.872 5.42-12.441 12.105-12.441 6.687 0 12.104 5.57 12.104 12.44zM71.962.488L77.159 0v22.912c0 2.758.852 4.136 2.554 4.136.414 0 1.184-.105 2.308-.311l.625 3.287c-.032 0-.168.044-.41.134-.24.089-.52.177-.84.268-.805.235-1.782.356-2.937.356-2.215 0-3.852-.692-4.907-2.068-1.06-1.378-1.59-3.283-1.59-5.711V.488zm92.827 0L169.986 0v22.912c0 2.758.85 4.136 2.552 4.136.417 0 1.187-.105 2.31-.311l.625 3.287c-.031 0-.17.044-.41.134-.239.089-.52.177-.839.268-.805.235-1.782.356-2.937.356-2.215 0-3.852-.692-4.91-2.068-1.06-1.378-1.588-3.283-1.588-5.711V.488zm-22.327 18.424c0 2.876.475 4.95 1.421 6.223.946 1.277 2.318 1.913 4.115 1.913 1.798 0 3.201-.587 4.211-1.757 1.013-1.17 1.517-2.614 1.517-4.331V10.29c-1.249-.383-2.68-.576-4.285-.576-2.44 0-4.208.815-5.317 2.444-1.106 1.63-1.662 3.88-1.662 6.754zM158.923 7.98v16.624c0 1.036.13 1.724.388 2.066.255.342.881.51 1.874.51l.194 2.802c-.803.266-1.653.4-2.552.4-2.5 0-3.992-1.05-4.476-3.156-1.7 2.37-4.21 3.557-7.53 3.557-3.322 0-5.793-1.143-7.414-3.425-1.62-2.28-2.432-5.221-2.432-8.822 0-3.6 1.109-6.59 3.324-8.978 2.212-2.385 5.179-3.578 8.904-3.578 1.508 0 3.263.217 5.27.645 2.003.43 3.491.882 4.45 1.355zm-33.562 22.803c-3.676 0-6.506-1.157-8.496-3.468-1.987-2.313-2.984-5.267-2.984-8.867 0-3.6 1.06-6.579 3.178-8.935 2.12-2.355 5.055-3.533 8.809-3.533 3.145 0 6.03.622 8.663 1.866l-1.443 3.246c-2.184-.918-4.238-1.377-6.16-1.377-2.568 0-4.47.784-5.706 2.354-1.236 1.571-1.854 3.542-1.854 5.911 0 6.045 2.536 9.069 7.606 9.069 1.894 0 3.868-.505 5.92-1.512l1.686 3.11c-2.472 1.422-5.545 2.136-9.219 2.136zM54.622.488l5.2-.488v7.182h7.458l-.578 3.374h-6.88v11.913c0 1.6.265 2.762.791 3.49.53.724 1.356 1.089 2.48 1.089 1.124 0 2.391-.12 3.803-.356l.627 3.244c-1.992.562-3.917.846-5.777.846-2.598 0-4.436-.638-5.511-1.913-1.075-1.273-1.613-3.082-1.613-5.421V10.556h-3.609V7.182h3.609V.488zM30.129 18.912c0 2.876.473 4.95 1.419 6.223.948 1.277 2.32 1.913 4.117 1.913 1.796 0 3.2-.587 4.211-1.757 1.01-1.17 1.515-2.614 1.515-4.331V10.29c-1.25-.383-2.679-.576-4.283-.576-2.438 0-4.21.815-5.317 2.444-1.106 1.63-1.662 3.88-1.662 6.754zM46.59 7.98v16.624c0 1.036.127 1.724.386 2.066.254.342.88.51 1.876.51l.194 2.802c-.803.266-1.653.4-2.552.4-2.502 0-3.995-1.05-4.476-3.156-1.702 2.37-4.212 3.557-7.533 3.557-3.32 0-5.792-1.143-7.412-3.425-1.621-2.28-2.43-5.221-2.43-8.822 0-3.6 1.106-6.59 3.32-8.978 2.213-2.385 5.182-3.578 8.904-3.578 1.508 0 3.264.217 5.271.645 2.005.43 3.49.882 4.452 1.355zM0 30.247V0h20.07v4.134H5.487v7.934h12.656v3.868H5.487v10.177h15.544v4.134H0z"/>
</svg>
