<?xml version="1.0" encoding="UTF-8"?>
<svg width="22px" height="22px" viewBox="0 0 22 22" version="1.1" xmlns="http://www.w3.org/2000/svg" xmlns:xlink="http://www.w3.org/1999/xlink">
    <!-- Generator: Sketch 53.2 (72643) - https://sketchapp.com -->
    <title>Loup icon white</title>
    <desc>Created with Sketch.</desc>
    <g id="Page-1" stroke="none" stroke-width="1" fill="none" fill-rule="evenodd">
        <g id="5" transform="translate(-29.000000, -170.000000)" fill="#343A54">
            <g id="Loup-icon-P" transform="translate(29.000000, 170.000000)">
                <path d="M1.41475218,9.07217481 C1.41475218,4.84974985 4.84972755,1.41436139 9.07253038,1.41436139 C13.2949359,1.41436139 16.7303086,4.84974985 16.7303086,9.07217481 C16.7303086,11.1754414 15.8773255,13.0824456 14.4999186,14.4678046 C14.4943565,14.4729694 14.4879999,14.4769423 14.4824378,14.4821071 C14.4768758,14.4876692 14.4733001,14.4940259 14.4681354,14.499588 C13.0827827,15.8770012 11.1757873,16.7299882 9.07253038,16.7299882 C4.84972755,16.7299882 1.41475218,13.2945998 1.41475218,9.07217481 M21.3929122,20.392628 L15.9635375,14.9632284 C17.3218744,13.376442 18.1446635,11.3192613 18.1446635,9.07217481 C18.1446635,4.06986463 14.0748176,0 9.07253038,0 C4.0702432,0 0,4.06986463 0,9.07217481 C0,14.074485 4.0702432,18.1443496 9.07253038,18.1443496 C11.3196066,18.1443496 13.3767778,17.3215568 14.9635569,15.9632137 L20.3925342,21.3926133 C20.5307914,21.5308711 20.7115587,21.6 20.8927232,21.6 C21.0734905,21.6 21.2546551,21.5308711 21.3929122,21.3926133 C21.6690293,21.116495 21.6690293,20.6687463 21.3929122,20.392628" id="Fill-1"></path>
            </g>
        </g>
    </g>
</svg>