<?xml version="1.0" encoding="UTF-8"?>
<svg width="292px" height="147px" viewBox="0 0 292 147" version="1.1" xmlns="http://www.w3.org/2000/svg" xmlns:xlink="http://www.w3.org/1999/xlink">
    <!-- Generator: Sketch 53.2 (72643) - https://sketchapp.com -->
    <title>Group 3</title>
    <desc>Created with Sketch.</desc>
    <defs>
        <polygon id="path-1" points="-1.98735512e-15 0 292 0 292 147 -1.98735512e-15 147"></polygon>
    </defs>
    <g id="Page-1" stroke="none" stroke-width="1" fill="none" fill-rule="evenodd">
        <g id="16-copy" transform="translate(-14.000000, -434.000000)">
            <g id="Group-3" transform="translate(14.000000, 434.000000)">
                <mask id="mask-2" fill="white">
                    <use xlink:href="#path-1"></use>
                </mask>
                <g id="Clip-2"></g>
                <path d="M8.44069863,182.98074 L4.59735323,202.515006 L0.167557293,201.762348 L0.167557293,205.353155 L48.7225191,213.8676 L0.167557293,215.871204 L0.167557293,219.378382 L16.5480281,218.709352 L16.7976186,227.641941 L0.167557293,228.558372 L0.167557293,230.312832 L16.7976186,229.394659 L17.1327332,242.750856 L20.6427094,242.750856 L20.3075948,231.731035 L26.158137,230.89649 L25.8230224,242.750856 L27.5788832,242.750856 L27.9139978,230.645604 L39.2782221,229.060144 L47.2179942,236.238273 L43.0395342,242.834485 L45.1287642,242.834485 L48.5549618,237.407332 L54.4892826,242.834485 L57.0794391,242.834485 L41.5350094,228.727371 C45.8810267,227.974713 56.8298485,226.138367 61.4254564,225.303822 L58.4164067,242.834485 L61.9281283,242.834485 L63.4309077,234.069154 L76.4689596,236.156386 C75.9662877,238.492762 75.5491399,240.747252 75.0482134,242.834485 L78.6419682,242.834485 L79.6438212,237.825475 L85.9952898,242.834485 L91.6782747,242.834485 L80.4798623,234.069154 L82.8204282,222.71656 L116.916592,227.558312 L114.158878,242.916371 L120.093199,242.916371 L120.34279,241.330911 L131.37539,242.916371 L155.360518,242.916371 L143.242286,241.165396 L147.16941,224.887421 C151.515428,225.720223 162.881397,227.891085 167.227415,228.727371 L164.553479,243 L168.145489,243 L169.90135,233.818268 L209.430908,241.081767 L209.097539,243 L215.030114,243 L215.949934,238.243619 L224.891559,239.496307 L225.643821,243 L227.399682,243 L226.731198,239.74545 L246.370309,242.583599 L246.286531,243 L290.245885,243 L282.974596,241.99994 L282.306112,231.063748 L291.666631,230.563718 L291.666631,228.811 L282.138555,229.31103 L281.55385,220.043927 L291.666631,219.627525 L291.666631,216.120347 L281.386293,216.538491 L280.63403,203.684065 L291.748664,205.602298 L291.748664,202.014976 L281.134957,199.760486 L286.317015,180.393477 L291.916221,181.395279 L291.916221,175.468096 L281.218735,173.464492 L278.963694,160.108295 L291.916221,158.522834 L291.916221,155.015657 L278.377243,156.684746 L276.20598,143.664805 L287.653983,138.070395 C288.657581,141.410315 290.245885,147.002983 292,153.013795 L292,140.4904 L290.83059,136.484934 L292,135.901276 L292,129.388692 L289.242286,130.725009 C288.657581,128.719663 287.905319,125.965143 287.153056,123.294252 C288.322466,122.877851 290.078327,122.294192 292,121.625163 L292,119.788816 L286.650384,121.625163 C285.73231,118.370613 284.980048,115.447094 284.646678,114.363405 L287.236835,105.930846 L291.916221,106.432619 L291.916221,104.679901 L287.737761,104.179871 L291.081926,93.4109357 L291.916221,93.7437082 L291.916221,89.9873865 L288.071131,88.5691834 L291.916221,79.3857087 L291.916221,76.1311591 L284.5629,73.2930107 L289.158508,60.1040705 C290.078327,60.687729 290.998147,61.1895011 291.916221,61.6895309 L291.916221,57.5986945 C288.573802,55.6787193 285.313417,53.5078581 282.389891,51.1714818 L291.916221,49.5860213 L291.916221,46.0788434 L289.242286,46.4969868 L283.976449,37.7316555 L291.832443,33.0571606 L291.832443,31.0535567 L273.364487,41.9043783 C273.19693,41.6552345 273.029373,41.4043485 272.861815,41.1552047 C270.606774,37.6480268 268.934691,33.1407893 267.679757,27.9645222 L291.832443,29.7172401 L291.832443,27.9645222 L267.262609,26.2118044 C266.845461,24.2918293 266.510347,22.2882254 266.176978,20.2846215 L291.832443,18.3646464 L291.832443,14.8592107 L283.142154,15.5264979 L285.73231,-5.50960035 L291.832443,-5.67685772 L291.832443,-9.18229334 L286.149458,-9.01503598 L286.735908,-13.8585305 L291.832443,-19.0330553 L291.832443,-21.5384312 L287.069278,-16.6949367 L289.242286,-34.3928567 L291.832443,-34.058342 L291.832443,-35.8110598 L289.409844,-36.1455745 L290.245885,-43.158188 L291.832443,-42.907302 L291.832443,-48.8344849 L290.411696,-49 L246.454088,-49 L243.696374,-33.8928269 L231.243027,-31.3038222 L227.565494,-49 L225.811378,-49 L226.898756,-43.6582179 L213.944482,-41.9891287 L215.28145,-49 L209.265096,-49 L207.84435,-41.3200993 L168.063456,-47.1653958 L168.39857,-49 L164.80307,-49 L164.553479,-47.6654256 L155.610109,-49 L131.626726,-49 L163.967029,-44.2436187 L160.875946,-27.7966444 L117.335485,-32.1383668 L120.34279,-49 L114.410214,-49 L111.6525,-33.5583122 L91.9296106,-49 L86.2466258,-49 L105.801958,-33.6419408 L76.4689596,-37.8146637 L78.8077801,-49 L75.2140253,-49 C74.2959509,-44.4927624 73.4599099,-40.7364408 73.042762,-38.3164358 L60.5894153,-40.0674113 L62.0939402,-48.9181136 L58.5839639,-48.9181136 L58.4164067,-47.832683 L57.2469964,-48.9181136 L54.6568399,-48.9181136 L58.0830375,-45.8290791 L57.1632177,-40.5709257 L41.3674521,-42.8236733 L45.2125429,-48.9181136 L43.1233129,-48.9181136 L39.4457794,-43.0745594 L27.5788832,-44.7436485 L27.6626618,-48.8344849 L25.906801,-48.8344849 L25.8230224,-44.9945345 L20.8085213,-45.7454504 L20.7264881,-48.9181136 L17.2165119,-48.9181136 L17.3002905,-46.2454803 L0.167557293,-48.6672275 L0.167557293,-42.7400446 L16.9651759,-40.3200396 L16.0453562,-33.6419408 L0.0837786465,-35.6438024 L0.0837786465,-33.8928269 L11.0308551,-32.5565102 L0.0837786465,-21.4530603 L0.0837786465,-18.9494266 L13.2038638,-32.3056242 L15.7957656,-31.9711094 L12.7867159,-9.34955071 L0.0837786465,-9.01503598 L0.0837786465,-5.50960035 L12.2857894,-5.84411508 L9.61010891,14.2738099 L0.0837786465,14.9428394 L0.0837786465,18.448275 L5.01450107,18.1137603 L6.76861648,28.5481808 L0.0837786465,28.0481509 L0.0837786465,29.8008687 L2.08923,29.9681261 L0.0837786465,31.1371854 L0.0837786465,33.1407893 L5.18205836,30.1336412 L7.10373107,30.3008986 L9.52807565,44.5770117 L0.0837786465,46.1624721 L0.0837786465,49.6679077 L29.6681132,44.7425268 L27.7464405,69.6203177 C19.3877751,66.8657979 9.10918242,62.8585902 0,57.5986945 L0,61.6895309 C3.8450908,63.8603921 7.8559935,65.778625 11.8668962,67.4477142 L7.43884565,79.0529362 L0,76.1311591 L0,79.3857087 L0.502671879,78.2166494 L15.3768724,84.0619458 L12.8704946,94.7455101 L0,90.0710152 L0,93.8273368 L24.4040216,102.676297 L25.0725053,107.518049 L0.0837786465,104.761787 L0.0837786465,106.516247 L10.1127808,107.601678 L12.2857894,115.532465 L0.0837786465,119.788816 L0.0837786465,121.625163 C4.68113187,119.956073 10.5299286,117.95247 12.7029373,117.201554 L14.2074621,122.545078 L0.0837786465,129.472321 L0.0837786465,135.983162 L6.18565673,132.979499 L13.3714211,156.184716 L4.26223864,154.850141 L0.0837786465,140.4904 L0.0837786465,153.013795 C0.251335939,153.681082 0.417147844,154.266483 0.668483783,154.932028 L0.0837786465,155.015657 L0.0837786465,158.522834 L1.67208215,158.355577 C3.76131215,165.450077 5.7667635,172.546319 7.01995242,176.719042 L0.0837786465,175.468096 L0.0837786465,181.395279 L8.44069863,182.98074 Z M23.5679805,179.809819 L26.0743583,161.52824 L39.0286315,163.362844 L35.8520245,182.064309 L23.5679805,179.809819 Z M46.3819532,140.741286 L53.4856842,141.993974 L49.8098961,161.360983 L43.0395342,160.359181 L46.3819532,140.741286 Z M39.529558,159.941037 L34.0141305,159.190122 L35.8520245,146.335696 L41.618788,147.588384 L39.529558,159.941037 Z M46.4657318,95.0800248 L46.7170677,86.4819509 L54.154168,87.8182675 L50.6441918,95.0800248 C49.975708,94.9963961 49.3072242,94.9127675 48.5549618,94.9127675 C47.886478,94.9127675 47.1342156,94.9963961 46.4657318,95.0800248 L46.4657318,95.0800248 Z M40.5331564,97.7509159 C39.9467059,98.252688 39.4457794,98.7527178 38.9448529,99.2527476 L30.336597,92.6582775 L40.8665256,86.4819509 L40.5331564,97.7509159 Z M55.9938075,97.3345147 L64.0156129,80.7220253 L70.6184174,98.7527178 L59.7533742,101.507238 C58.8352999,99.8381484 57.5803656,98.4199453 55.9938075,97.3345147 L55.9938075,97.3345147 Z M74.5472869,-17.7803673 L79.310452,-15.6095061 L85.6619206,10.9356317 L72.4563115,7.17931002 L74.5472869,-17.7803673 Z M68.9480807,6.34302319 L59.8371529,4.59030537 L61.509235,-1.92053604 L69.6148191,-1.41876395 L68.9480807,6.34302319 Z M261.914739,-30.6347928 C261.495846,-24.7093521 261.078698,-17.863996 260.994919,-10.7677538 L259.239058,-10.8531247 L252.805557,-31.5547083 L261.914739,-30.6347928 Z M266.00942,-37.8146637 L277.040275,-35.8110598 L274.617676,-16.7785654 C272.528446,-16.9458227 267.346388,-17.5312235 264.588674,-17.7803673 C265.007567,-25.460268 265.592272,-32.3892529 266.00942,-37.8146637 L266.00942,-37.8146637 Z M242.692776,7.2629387 L222.550993,9.51568634 C221.966288,4.34116159 220.128394,-11.2695259 219.543689,-16.7785654 L240.687324,-14.3585604 L242.692776,7.2629387 Z M257.401164,-10.9367534 L244.446891,-11.5204119 L244.029743,-15.9440208 L244.782006,-20.033115 L254.226303,-21.2021743 L257.401164,-10.9367534 Z M220.796877,9.76657239 L213.525589,10.6028592 L210.015613,-17.863996 L217.705794,-16.9458227 L220.796877,9.76657239 Z M222.217624,129.555949 L210.851654,126.3014 L205.753374,113.028831 C211.186769,111.107113 216.534639,109.521653 219.7095,108.685366 L222.217624,129.555949 Z M233.248479,111.274371 L234.503413,121.457905 L227.232125,122.626965 L225.978936,112.108915 L233.248479,111.274371 Z M159.038052,161.944641 L161.961578,149.590246 L181.183541,155.768315 L179.178089,166.369992 C175.668113,165.533706 167.059857,163.699101 159.038052,161.944641 L159.038052,161.944641 Z M178.842975,168.039082 L176.420376,181.060764 L160.542577,164.031874 L178.842975,168.039082 Z M174.915851,51.9223976 L176.837523,72.0403227 L168.063456,74.2094416 L167.394972,50.0860511 L174.915851,51.9223976 Z M190.126911,51.9223976 L183.691664,70.3712335 L180.263721,71.2057781 L178.593384,53.4259717 L190.126911,51.9223976 Z M161.961578,143.497548 L151.682985,140.157627 L157.36597,125.799628 L166.977824,129.639578 L161.961578,143.497548 Z M168.564382,130.308608 L176.921302,133.646786 C174.07981,138.572167 171.573432,143.328548 170.236464,146.168439 L163.63366,144.081206 L168.564382,130.308608 Z M154.440699,120.957875 L160.207462,114.196148 L171.740989,122.294192 L168.648161,126.550544 L154.440699,120.957875 Z M152.686583,120.290588 L151.850542,119.956073 L150.429796,103.010812 L161.795766,94.4963663 L167.47875,102.927183 L152.686583,120.290588 Z M149.761312,101.258094 L141.488171,86.9000943 L154.524477,83.6438024 L160.792167,92.9945345 C158.702937,94.579995 152.018099,99.5036337 149.761312,101.258094 L149.761312,101.258094 Z M163.132733,93.4109357 C164.050808,92.6582775 165.806668,91.3237031 167.059857,90.3219012 L172.158137,97.4181434 L168.648161,101.590866 L163.132733,93.4109357 Z M162.212913,91.9091039 L156.362371,83.1420303 L161.125536,81.972971 L166.058004,88.9019559 L162.212913,91.9091039 Z M135.302514,82.4747431 L139.899867,67.1149417 L150.513575,78.7184215 L135.302514,82.4747431 Z M140.400794,65.1130801 L146.335115,45.2442989 L165.557078,49.7515364 L166.307595,74.7112137 L152.435247,78.2166494 L140.400794,65.1130801 Z M177.589786,43.4898388 L200.738873,40.735319 L201.910029,48.4988484 L178.425827,51.5878829 L177.589786,43.4898388 Z M174.07981,43.3243237 L174.748293,50.0024225 L160.875946,46.7478729 L162.965176,40.1516605 L174.07981,43.3243237 Z M159.121831,46.4133582 L146.836041,43.5734675 L149.00905,36.2298237 L161.294839,39.7352594 L159.121831,46.4133582 Z M142.908917,44.493383 L117.084149,35.0607644 L120.00942,28.0481509 L145.582852,35.3099082 L142.908917,44.493383 Z M142.406245,46.1624721 L139.73231,55.2605759 L128.032971,51.3369969 C128.869012,48.7497345 130.371792,43.9097245 130.956497,41.9043783 L142.406245,46.1624721 Z M125.273512,54.1751453 C124.690552,55.9296054 123.603175,59.0186398 122.266208,62.6913328 L109.060598,56.929665 L109.980418,49.0842492 L125.273512,54.1751453 Z M126.945594,54.6769174 L138.728712,58.6004964 L134.717809,72.1239514 L121.931093,68.8676595 L126.945594,54.6769174 Z M134.216882,73.7930405 L131.37539,83.4765451 L115.495846,87.4820105 L121.430167,70.5384909 L134.216882,73.7930405 Z M139.73231,87.4001241 L143.994549,94.8291388 L130.956497,98.503574 L133.380841,88.9873268 L139.73231,87.4001241 Z M144.912623,96.4145992 L148.590156,102.843554 L150.010903,119.205158 L127.949192,110.439826 L130.45557,100.505436 L144.912623,96.4145992 Z M137.726859,118.036098 L135.134957,125.883256 L124.690552,123.045108 L127.029373,113.778005 L137.726859,118.036098 Z M139.397195,118.703385 L155.693888,125.215969 L149.927124,139.657597 L134.049325,134.564959 L139.397195,118.703385 Z M132.796136,140.324885 L130.20598,154.932028 L109.730828,142.661261 L116.583223,135.064989 L132.796136,140.324885 Z M138.395342,142.07586 L160.291241,149.090216 L157.36597,161.610127 C151.599206,160.359181 146.418893,159.190122 143.91077,158.690092 L137.391744,147.753899 L138.395342,142.07586 Z M156.029002,163.113701 L149.677534,168.288225 L145.163959,160.691953 L156.029002,163.113701 Z M173.578883,147.252127 C176.504154,141.410315 183.524107,128.219633 188.706165,122.125192 C188.955756,121.876049 189.207092,121.541534 189.540461,121.29239 L201.574914,135.315875 L185.613337,151.092077 L173.578883,147.252127 Z M198.232495,126.048771 L207.008309,121.457905 L209.097539,126.885058 L203.999259,132.810499 L198.232495,126.048771 Z M197.063085,124.630568 L192.381953,119.121529 C195.474782,117.117925 199.73702,115.19795 204.083037,113.612489 L206.423603,119.788816 L197.063085,124.630568 Z M186.114263,119.872445 C183.775443,122.545078 181.183541,126.550544 178.760942,130.64138 L170.320243,127.301459 L182.10336,111.107113 L187.535009,118.621499 C186.950304,118.954272 186.449378,119.454301 186.114263,119.872445 L186.114263,119.872445 Z M172.742842,120.874247 L161.294839,112.861574 L173.243769,98.8363465 L180.93395,109.521653 L172.742842,120.874247 Z M178.008679,99.5872624 L188.37105,96.4145992 L192.048584,104.179871 L183.607885,107.43442 L178.008679,99.5872624 Z M190.126911,95.9145694 L198.400053,93.4109357 L205.837153,98.9199752 L193.718921,103.596212 L190.126911,95.9145694 Z M175.83567,96.5818566 L164.637258,81.1401687 L186.866526,75.5457583 L190.126911,92.3255051 L175.83567,96.5818566 Z M188.620641,75.0457285 L214.780523,68.4512584 L216.702196,84.2274609 L191.881027,91.7418466 L188.620641,75.0457285 Z M185.697115,69.7858328 L192.048584,51.5878829 L202.159619,50.2515662 L204.332628,65.0294514 L185.697115,69.7858328 Z M202.410955,40.5698039 L211.186769,39.568002 L214.028261,62.6913328 L206.00471,64.6931944 L202.410955,40.5698039 Z M216.951787,38.5662001 L224.474411,36.81174 L223.305001,61.4386449 L219.793279,62.3585604 L216.951787,38.5662001 Z M179.596983,39.7352594 L198.651389,23.12277 L209.097539,22.4554828 L210.767875,36.0625664 L179.596983,39.7352594 Z M214.946335,21.870082 L222.46896,20.7010227 C223.221222,25.3772599 223.971739,30.6371556 224.390632,33.3080466 L216.534639,35.1426509 L214.946335,21.870082 Z M208.929981,20.7846514 L199.152315,21.4536808 L198.400053,14.1065526 L208.177719,14.3574386 L208.929981,20.7846514 Z M197.396454,21.9537107 L177.256417,39.4843733 L174.832072,13.4392654 L196.72797,14.0229239 C196.811749,16.3610425 197.230642,20.6191363 197.396454,21.9537107 L197.396454,21.9537107 Z M173.74644,39.6498884 L123.100503,25.2936312 L127.029373,18.197389 L173.161735,33.224418 L173.74644,39.6498884 Z M116.667001,27.046349 L109.144377,45.0787838 L103.128023,43.0734376 L111.151574,25.5445172 L116.667001,27.046349 Z M116.415665,36.6462249 L129.28616,41.3207198 L126.360889,50.7533383 L112.488541,46.0788434 L116.415665,36.6462249 Z M108.310081,48.4988484 L107.390262,56.4296352 L95.6053987,54.595031 L101.373908,46.1624721 L108.310081,48.4988484 Z M107.891188,58.2659817 L121.679757,64.2767933 C120.00942,69.0366591 118.087748,74.46207 116.415665,79.2184513 L89.4214874,73.9602979 L86.8313309,67.2821991 L94.4359885,56.2641201 L107.891188,58.2659817 Z M89.9241593,84.8947481 L79.310452,87.8182675 L74.1283936,75.3785009 L84.1573958,69.7022041 L89.9241593,84.8947481 Z M90.2575285,75.880273 L115.914739,80.8875404 C114.911141,83.7274311 114.0751,86.2310648 113.406616,87.9855249 L96.5252185,92.2418764 L90.2575285,75.880273 Z M129.619529,89.9037578 L124.690552,109.354396 L118.087748,104.345386 L114.994919,93.5781931 L129.619529,89.9037578 Z M124.104102,111.274371 L119.424715,129.639578 L108.978565,109.188881 L117.000371,105.930846 L124.104102,111.274371 Z M124.271659,124.796083 L134.550252,127.554088 L132.377243,134.063187 L122.683355,130.974152 L124.271659,124.796083 Z M114.743583,134.48133 L99.8676374,150.926562 L97.5288168,149.673874 C99.1171203,141.326686 100.537867,134.063187 101.288384,130.139608 L114.743583,134.48133 Z M108.475893,143.997578 L129.870865,156.770117 L128.282562,165.617334 L101.455941,151.677478 L108.475893,143.997578 Z M127.949192,167.455423 L127.448266,170.293572 L94.6035458,164.78279 C95.4395868,160.359181 96.3594066,155.768315 97.1937023,151.511963 L127.949192,167.455423 Z M105.801958,168.455483 L102.375761,182.813482 L91.4269388,181.060764 C92.2629798,176.719042 93.2665782,171.711775 94.2684312,166.453621 L105.801958,168.455483 Z M89.8403806,170.626344 L88.0007412,180.393477 L69.9499337,176.051755 L71.5382372,168.039082 L89.8403806,170.626344 Z M87.667372,182.146195 L85.9115112,191.244299 L67.5273345,187.906121 L69.5310404,177.804473 L87.667372,182.146195 Z M91.0935696,182.813482 L102.124425,184.5662 L101.373908,194.08419 L89.3394541,191.913328 C89.756602,189.742467 90.3413071,186.571546 91.0935696,182.813482 L91.0935696,182.813482 Z M103.880285,184.818828 L111.235352,185.986145 L109.89664,195.66965 L103.128023,194.416962 L103.880285,184.818828 Z M112.905689,186.237031 L124.18788,187.989749 L122.433765,197.922398 L111.568722,195.920536 L112.905689,186.237031 Z M104.131621,183.064368 L107.557819,168.706369 L127.113151,171.962661 L124.52125,186.237031 L104.131621,183.064368 Z M136.471924,153.013795 L146.91982,170.542715 L131.040275,183.56614 L136.471924,153.013795 Z M147.839639,172.046289 L161.378618,194.835105 L155.192961,199.927744 L141.653983,177.137185 L147.839639,172.046289 Z M150.513575,169.791799 L157.866896,163.780988 L175.83567,182.98074 L164.136332,192.580616 L150.513575,169.791799 Z M188.706165,183.733398 L190.544059,170.040943 C193.134216,170.459087 195.55856,170.87723 196.811749,171.042745 L194.054035,184.5662 L188.706165,183.733398 Z M186.950304,183.482512 L179.762795,182.313452 L182.354696,168.706369 C183.941255,168.957255 186.365599,169.373656 188.789944,169.791799 L186.950304,183.482512 Z M182.604287,167.03728 L184.527705,156.853745 L198.733422,161.360983 L197.146864,169.29177 L182.604287,167.03728 Z M189.456682,152.261137 L203.91548,137.986766 L213.525589,149.173845 L208.762424,158.439206 L189.456682,152.261137 Z M205.252448,134.146816 L210.518285,128.054118 L222.46896,131.475925 L225.059116,152.344765 C223.971739,152.595651 222.969886,153.097424 221.966288,153.597453 L205.252448,134.146816 Z M227.649273,126.1324 L245.45049,123.37788 L247.290129,135.232246 L229.153797,138.070395 L227.649273,126.1324 Z M190.21069,116.448896 L184.777296,108.937994 L207.509235,100.172663 L215.698598,106.181732 C208.594867,108.185336 197.146864,111.859772 190.21069,116.448896 L190.21069,116.448896 Z M200.489283,92.8255349 L217.119344,87.8182675 L219.208574,105.181673 C218.791426,105.265301 218.288754,105.430817 217.787828,105.514445 L200.489283,92.8255349 Z M223.305001,90.0710152 L222.634771,84.478347 L238.013389,74.8784711 L240.35221,90.0710152 L223.305001,90.0710152 Z M222.385181,82.4747431 L220.62932,67.8675999 L236.508864,73.6257831 L222.385181,82.4747431 Z M223.137443,65.1130801 L253.306483,57.265922 L247.455941,73.9602979 L223.137443,65.1130801 Z M225.142895,61.0222437 L225.811378,47.4970465 L246.202752,43.9097245 L247.290129,55.3442046 L225.142895,61.0222437 Z M225.895157,45.6624423 L226.312305,36.3953388 L245.11712,32.0553587 L246.118973,42.1552644 L225.895157,45.6624423 Z M226.062714,32.8062745 L224.141042,20.3682502 L231.661921,19.1991909 L233.248479,31.2208141 L226.062714,32.8062745 Z M214.696745,20.1173642 L213.944482,14.0229239 L221.297804,13.1901216 C221.54914,14.524696 221.800476,16.6119285 222.217624,18.8664185 L214.696745,20.1173642 Z M171.238317,13.357379 L172.910399,31.3027005 L144.912623,22.2045967 L148.757714,12.8556069 L171.238317,13.357379 Z M143.242286,21.6209382 L127.614078,16.5282999 L128.282562,12.2719484 L146.836041,12.7719782 L143.242286,21.6209382 Z M125.943741,15.9446413 L113.322837,11.8538049 L126.612225,12.1883197 C126.360889,13.4392654 126.109553,14.9428394 125.943741,15.9446413 L125.943741,15.9446413 Z M125.357291,17.6137305 L121.346388,24.7082304 L94.6873244,17.1119584 L97.4450382,11.3520328 L107.138926,11.6029189 L125.357291,17.6137305 Z M109.479492,25.0427451 L101.455941,42.5734078 L85.0772155,37.147997 L93.0990209,20.4518789 L109.479492,25.0427451 Z M99.7018255,45.5788136 L86.1628471,65.2785952 L79.6438212,48.3333333 L83.5709453,40.2352892 L99.7018255,45.5788136 Z M73.4599099,47.8333035 L65.939031,63.35862 L58.4164067,59.2677836 L61.4254564,45.4951849 L73.4599099,47.8333035 Z M77.5545912,52.6733135 L83.488912,68.1167436 L73.4599099,73.8766692 L70.6184174,67.1149417 L77.5545912,52.6733135 Z M77.6383699,88.3182974 L69.5310404,90.5727873 L65.1029899,78.5529064 L69.6148191,69.1185456 L77.6383699,88.3182974 Z M90.5926431,86.5655795 L93.0990209,93.1600496 L72.3725328,98.4199453 L70.1174909,92.2418764 L90.5926431,86.5655795 Z M113.239058,94.0782229 L116.16433,104.345386 L91.7620533,114.196148 L87.4998147,100.505436 L113.239058,94.0782229 Z M107.390262,109.770797 L117.251707,129.223177 L84.9096582,118.870643 L107.390262,109.770797 Z M97.862186,129.139548 L94.6873244,145.750295 L76.7185501,142.579374 L80.5636409,123.630509 L97.862186,129.139548 Z M72.5400901,145.333894 L68.7805234,164.031874 L58.5839639,162.613671 L67.9444823,144.497607 L72.5400901,145.333894 Z M75.9662877,145.999439 L93.935062,149.173845 L90.4250858,167.202795 L72.1229423,164.615532 L75.9662877,145.999439 Z M68.0282609,167.539052 L64.0156129,187.237091 L53.4019056,185.318858 L57.2469964,166.033735 L68.0282609,167.539052 Z M44.1269113,189.491581 L43.0395342,197.922398 L29.5843345,195.335135 L30.5879329,186.987947 L44.1269113,189.491581 Z M45.797248,189.826096 L66.9408839,193.666046 L65.4363591,202.26412 L44.7116164,198.258655 L45.797248,189.826096 Z M70.3670815,194.335076 L84.7421009,197.005967 C84.1573958,199.760486 83.2375761,204.267724 82.150199,209.525877 L68.3616301,206.438585 L70.3670815,194.335076 Z M88.1682985,197.589625 L105.885737,200.845917 L102.960466,221.713016 L83.6547239,218.958496 L88.1682985,197.589625 Z M127.949192,200.176888 L130.45557,186.153403 L140.233237,178.224358 L153.772215,201.095061 L149.593755,204.516868 L127.949192,200.176888 Z M148.005451,207.607644 L144.495475,222.132901 C140.400794,221.296615 129.870865,219.209382 124.772585,218.209322 L127.364487,203.600437 L148.005451,207.607644 Z M154.107329,205.269526 L175.083408,188.073378 L171.238317,208.607704 L154.107329,205.269526 Z M179.094311,185.735259 L200.573061,189.158809 L197.063085,213.616714 L174.664515,209.276734 L179.094311,185.735259 Z M202.74607,198.842313 L217.119344,200.845917 L214.110294,216.956634 L200.489283,214.285743 L202.74607,198.842313 Z M223.221222,200.00963 L224.474411,193.41516 L236.425086,195.502393 L235.756602,202.182234 L223.221222,200.00963 Z M217.454459,199.175086 C213.443556,198.591427 206.254301,197.589625 202.99566,197.173224 L204.083037,189.742467 L218.791426,192.080586 L217.454459,199.175086 Z M225.142895,189.991611 L227.483461,177.388071 L228.235723,177.388071 C230.073617,177.388071 231.743954,176.97167 233.332257,176.302641 L240.519767,188.157007 L233.499815,191.413298 L225.142895,189.991611 Z M219.45991,188.657036 L195.809896,184.902457 L200.405504,161.944641 L215.698598,166.870022 C216.367081,170.626344 218.707647,173.880894 221.884254,175.718982 L219.45991,188.657036 Z M221.297804,164.615532 C221.297804,160.777324 224.390632,157.686548 228.235723,157.686548 C232.079068,157.686548 235.171897,160.777324 235.171897,164.615532 C235.171897,168.455483 232.079068,171.54626 228.235723,171.54626 C224.474411,171.54626 221.297804,168.455483 221.297804,164.615532 L221.297804,164.615532 Z M216.117491,160.860953 L210.518285,159.106493 L214.780523,150.675676 L219.124795,155.768315 C217.787828,157.102889 216.702196,158.855607 216.117491,160.860953 L216.117491,160.860953 Z M230.909658,152.177508 L229.405133,139.741226 L247.623498,136.903078 L249.712728,150.175646 L237.762053,156.017458 C235.922414,154.097483 233.499815,152.677538 230.909658,152.177508 L230.909658,152.177508 Z M248.541573,120.456103 L255.479492,119.539672 L260.242657,144.915751 L252.805557,148.504815 L248.541573,120.456103 Z M244.949563,119.872445 L236.257528,121.208761 L235.00434,111.107113 L243.445038,110.105312 L244.949563,119.872445 Z M225.7276,110.439826 L223.470813,91.8254752 L240.519767,91.8254752 L243.109924,108.436222 L225.7276,110.439826 Z M244.197301,92.4091338 L265.592272,98.3363167 L262.832813,105.681703 L245.618047,101.423609 L244.197301,92.4091338 Z M243.862186,90.4891586 L241.523365,75.5457583 L270.271659,85.9801788 L266.176978,96.6654853 L243.862186,90.4891586 Z M249.128023,74.5456986 L252.137073,65.9458824 L263.000371,68.9512882 L259.157025,78.1330207 L249.128023,74.5456986 Z M252.721778,64.360422 L255.395713,56.7641499 L269.603175,53.0914569 L263.668854,67.4477142 L252.721778,64.360422 Z M250.716327,54.3441449 L248.459539,30.4698982 L256.231754,29.3844676 L260.659805,51.838769 L250.716327,54.3441449 Z M235.00434,30.719042 L233.416036,18.8664185 L243.696374,17.1973293 L244.782006,28.4645521 L235.00434,30.719042 Z M231.410585,17.4464731 L223.88796,18.6155324 L223.053665,13.021122 L230.742101,12.1883197 L231.410585,17.4464731 Z M232.497962,11.9374336 L243.109924,10.7683743 L243.528817,15.5264979 L233.1647,17.1973293 L232.497962,11.9374336 Z M207.675047,10.7683743 L198.064938,10.5192305 C197.815347,7.76296853 197.312676,2.17030036 197.146864,-0.0824472846 L206.423603,0.250325183 L207.675047,10.7683743 Z M150.513575,-3.67325386 L142.657581,-4.00602632 C142.74136,-6.01137245 142.908917,-10.6841251 142.99095,-12.6894712 L151.182058,-12.3549565 L150.513575,-3.67325386 Z M154.608256,-11.6040406 L168.564382,-2.92233798 L154.023551,-3.50599649 L154.608256,-11.6040406 Z M140.903466,-4.00602632 L131.542947,-4.34228332 C132.127652,-7.18043175 132.712358,-10.1840953 133.213284,-13.0222437 L141.153056,-12.6894712 L140.903466,-4.00602632 Z M129.787087,-4.50779842 L118.087748,-5.92774377 L120.428314,-15.0258476 L131.459169,-13.1895011 L129.787087,-4.50779842 Z M111.401164,-5.00782826 L110.147975,0.083067817 L103.211802,-0.41870428 L105.71818,-5.67685772 L111.401164,-5.00782826 Z M113.157025,-4.84231315 L129.453717,-2.83696703 L128.617676,1.41938448 L111.98587,0.1666965 L113.157025,-4.84231315 Z M128.282562,3.17210229 L127.19693,8.68114178 L99.200899,7.9302259 L102.459539,1.16849843 L128.282562,3.17210229 Z M131.207833,-2.67145193 L140.817942,-2.25330851 C140.65213,0.00118139835 140.317015,6.0938794 140.149458,9.09928519 L128.951045,8.84839915 C129.369939,6.42665187 130.20598,2.17030036 131.207833,-2.67145193 L131.207833,-2.67145193 Z M142.573802,-2.25330851 L150.429796,-1.92053604 L149.593755,9.26654256 L141.905319,9.09928519 L142.573802,-2.25330851 Z M153.939772,-1.75327868 L171.072505,-1.08424922 L171.823022,9.85020108 L153.103731,9.35017124 L153.939772,-1.75327868 Z M172.826621,-1.08424922 L179.679016,-0.835105431 L179.345647,10.0174584 L173.578883,9.85020108 L172.826621,-1.08424922 Z M183.188992,-0.667848065 L195.391003,-0.166075967 L196.310823,10.5192305 L182.939402,10.1829735 L183.188992,-0.667848065 Z M204.250595,-17.3622239 L206.172267,-1.50239263 L196.979306,-1.83690736 L197.146864,-18.0312534 L204.250595,-17.3622239 Z M195.307224,-1.92053604 L183.272771,-2.42056588 L183.775443,-19.4494564 L195.474782,-18.2821394 L195.307224,-1.92053604 Z M179.762795,-2.50419456 L172.158137,-2.83696703 L163.132733,-8.43137746 L177.841122,-20.033115 L180.263721,-19.7839712 L179.762795,-2.50419456 Z M161.54443,-9.34955071 L154.775813,-13.5240158 L155.360518,-22.2057184 L175.334744,-20.2021146 L161.54443,-9.34955071 Z M151.265837,-14.0240456 L133.548399,-14.8603325 C134.300661,-18.6985406 134.969145,-22.0384611 135.386293,-24.292951 L151.850542,-22.6221196 L151.265837,-14.0240456 Z M184.527705,-25.209382 L185.529558,-32.2237378 L205.587562,-28.7165599 L204.583964,-23.2075204 L184.527705,-25.209382 Z M133.714211,-24.4584661 L131.876317,-15.0258476 L111.902091,-18.3640258 L115.747182,-26.2948126 L133.714211,-24.4584661 Z M118.672453,-15.3603623 L116.248108,-6.17688755 L106.470442,-7.34594685 L110.984017,-16.6130503 L118.672453,-15.3603623 Z M99.7018255,-6.51140228 L90.5926431,12.3538348 L87.5835933,11.5192902 L81.3159034,-14.6913328 L99.7018255,-6.51140228 Z M89.756602,13.9410375 L85.3268061,23.2063986 L71.3706799,19.1155622 L72.2067209,8.93202783 L89.756602,13.9410375 Z M83.8222812,26.3773195 L79.9789358,34.3081063 L55.5749142,28.4645521 L56.6622912,18.3646464 L83.8222812,26.3773195 Z M52.4838312,40.2352892 L47.9702567,39.4007446 L48.6387405,16.1955274 L54.8226518,18.0301316 L52.4838312,40.2352892 Z M55.3253237,30.2172699 L79.1428947,35.895309 L74.9644347,44.493383 L54.2379467,40.4861753 L55.3253237,30.2172699 Z M59.671341,45.1606702 L54.3217253,69.9530901 L47.2179942,69.0366591 L47.9702567,42.9079225 L59.671341,45.1606702 Z M57.9992588,61.1058724 L65.1867685,64.9440805 L61.0083085,73.5438967 L55.9938075,70.4548622 L57.9992588,61.1058724 Z M54.6568399,71.7075502 L60.2560461,75.1293572 L54.9064304,86.1474361 L46.7170677,84.7274908 L47.1342156,70.7876347 L54.6568399,71.7075502 Z M55.492881,107.685307 C55.492881,111.523515 52.4000526,114.614291 48.5549618,114.614291 C44.7116164,114.614291 41.618788,111.523515 41.618788,107.685307 C41.618788,103.845356 44.7116164,100.756322 48.5549618,100.756322 C52.4000526,100.756322 55.492881,103.845356 55.492881,107.685307 L55.492881,107.685307 Z M60.8407512,111.107113 C61.1741204,110.021683 61.3416777,108.852624 61.3416777,107.601678 L61.3416777,107.099906 L85.7456993,100.923579 L90.0899712,114.863435 L82.3195017,117.95247 L60.8407512,111.107113 Z M77.221222,122.461449 L73.2923526,141.910345 L71.5382372,141.57583 L55.9938075,117.95247 C56.6622912,117.45244 57.330775,116.867039 57.9154802,116.28338 L77.221222,122.461449 Z M69.1976712,141.243058 L46.9684037,137.319479 L49.8936748,120.372475 C51.5640115,120.20696 53.152315,119.70693 54.5730612,118.954272 L69.1976712,141.243058 Z M41.9539026,145.833924 L36.1871391,144.497607 L38.442181,128.888662 L44.3765018,131.894068 L41.9539026,145.833924 Z M55.1577664,142.328488 L66.0228096,144.248464 L56.6622912,162.446413 L51.4802329,161.693755 L55.1577664,142.328488 Z M39.1961888,182.647967 L42.3710505,163.864617 L55.492881,165.700963 L51.7315688,184.902457 L39.1961888,182.647967 Z M10.2803381,191.580556 L11.8668962,183.56614 L28.9158508,186.653433 L27.9139978,194.918734 L10.2803381,191.580556 Z M8.10732944,203.015036 L9.69388755,195.000621 L35.9358032,200.093259 L34.263721,207.607644 L8.10732944,203.015036 Z M35.9358032,207.940417 L37.6078853,200.427774 L64.9354326,205.769556 L63.7660223,212.782169 L35.9358032,207.940417 Z M20.3913735,229.81106 L20.0580043,218.374837 L27.5788832,218.042065 L37.7754426,227.307426 C33.7627945,227.891085 24.4040216,229.227401 20.3913735,229.81106 L20.3913735,229.81106 Z M40.0322299,226.972911 L30.085261,217.956694 L63.0137599,216.62212 L61.9281283,223.21659 L40.0322299,226.972911 Z M77.3870339,232.481951 L64.1831702,230.396461 L68.0282609,208.107674 L81.8168298,211.194967 C80.3960836,217.789437 78.8077801,225.387451 77.3870339,232.481951 L77.3870339,232.481951 Z M104.800105,221.963902 L107.723631,201.178689 L121.513945,203.684065 L117.92019,223.80199 L104.800105,221.963902 Z M122.850913,228.811 L124.437471,219.96204 L133.632177,221.796644 L131.876317,230.480089 L122.850913,228.811 Z M121.262609,237.490961 L122.515798,230.480089 L131.542947,232.149178 L130.20598,238.827277 L121.262609,237.490961 Z M140.067425,240.24548 L131.960095,239.076421 L135.386293,222.132901 L144.078327,223.885619 L140.067425,240.24548 Z M147.923418,222.798446 L151.431649,208.356818 L170.653612,212.114882 L167.895898,226.640139 L147.923418,222.798446 Z M170.486055,231.649149 L174.07981,212.700283 L190.292723,215.871204 L186.533156,234.569183 L170.486055,231.649149 Z M281.386293,241.247282 L267.346388,239.243678 L267.513945,231.398263 L280.801588,230.645604 L281.386293,241.247282 Z M264.003969,231.398263 L263.92019,238.827277 L236.17375,234.820069 L236.17375,228.811 L264.003969,231.398263 Z M234.419634,228.643743 L234.419634,234.569183 L217.203123,232.149178 L218.122942,227.223797 L234.419634,228.643743 Z M218.456311,225.47108 L219.042762,222.21653 L264.087748,220.378441 L263.92019,229.643802 L218.456311,225.47108 Z M280.63403,228.976515 L267.513945,229.727431 L267.679757,220.211184 L280.049325,219.711154 L280.63403,228.976515 Z M213.443556,220.378441 L209.931834,238.910906 L188.119715,234.903698 L191.881027,216.203976 L213.443556,220.378441 Z M219.7095,218.625723 L222.886107,201.762348 C226.64742,202.431377 233.248479,203.516808 235.505266,203.933209 L234.000741,218.042065 L219.7095,218.625723 Z M235.756602,217.956694 L238.097168,195.836907 L247.53972,197.505996 L247.707277,217.540293 L235.756602,217.956694 Z M279.047472,202.931407 L279.881768,216.120347 L266.845461,216.62212 L267.013019,200.762288 L279.047472,202.931407 Z M265.173379,200.511402 L265.007567,216.705748 L249.461392,217.373035 L249.29558,197.75514 L265.173379,200.511402 Z M284.5629,180.058963 L279.380841,199.425972 L267.430167,197.338739 L273.19693,177.97173 L284.5629,180.058963 Z M265.758084,197.089595 L239.599947,192.496987 L271.524848,177.720844 L265.758084,197.089595 Z M265.592272,176.635413 L242.108071,187.489719 L234.920561,175.551725 C236.508864,174.549923 237.845832,173.297235 238.931464,171.711775 L265.592272,176.635413 Z M279.297063,173.215349 L240.854882,166.119106 C240.93866,165.700963 240.93866,165.284562 240.93866,164.868161 L277.124054,160.359181 L279.297063,173.215349 Z M276.539349,156.937374 L240.519767,161.360983 C240.519767,161.277354 240.435988,161.193725 240.435988,161.110097 L274.36634,144.497607 L276.539349,156.937374 Z M285.899867,132.394098 L261.996772,144.164835 L259.825509,132.561355 L283.726859,124.54694 L285.899867,132.394098 Z M283.225932,122.877851 C278.293464,124.54694 263.335485,129.555949 259.406616,130.892266 L257.233607,119.370673 L281.386293,116.367009 L283.225932,122.877851 Z M248.040646,117.034296 L245.953161,103.343584 L262.248108,107.350792 L259.073247,115.616093 L248.040646,117.034296 Z M260.994919,115.363465 L267.262609,98.9199752 L275.787087,102.759926 L271.692405,113.945262 L260.994919,115.363465 Z M283.726859,105.265301 L281.386293,112.776203 L273.614078,113.778005 L277.37539,103.427213 L283.726859,105.265301 Z M287.737761,92.4091338 L284.227785,103.678099 L277.207833,101.590866 L267.931093,97.4181434 L272.02752,86.7328369 L287.737761,92.4091338 Z M290.746811,77.7166195 L286.400794,88.15104 L280.216882,85.8965501 L283.976449,75.1293572 L290.746811,77.7166195 Z M280.63403,74.0439265 L276.956497,84.7274908 L260.743583,78.8020501 L264.588674,69.536689 L280.63403,74.0439265 Z M286.065679,58.3496104 L281.218735,72.2912087 L265.340937,67.8675999 L271.776184,52.5060562 L276.790685,51.1714818 C279.548399,53.8423728 282.72326,56.1804914 286.065679,58.3496104 L286.065679,58.3496104 Z M282.471924,38.8170861 L287.404392,46.9970167 L278.963694,48.416962 C277.291611,46.8297593 275.787087,45.2442989 274.533898,43.5734675 L282.471924,38.8170861 Z M269.936544,43.3243237 C271.1077,45.0787838 272.444668,46.7478729 273.865414,48.416962 L262.331887,51.4206255 L257.902091,29.2172102 L264.087748,28.3826657 C265.508494,34.1408489 267.346388,39.317116 269.936544,43.3243237 L269.936544,43.3243237 Z M263.752633,26.5463192 L248.291982,28.7154381 L246.035195,5.4265922 L261.162477,4.25753291 C261.495846,12.104691 262.331887,19.6992208 263.752633,26.5463192 L263.752633,26.5463192 Z M279.630432,16.02827 L265.758084,17.0283297 C264.922043,10.0993449 264.588674,2.58844378 264.504895,-4.75868447 L282.222334,-5.17508562 L279.630432,16.02827 Z M261.078698,2.58844378 L245.869383,3.75576081 L244.614448,-9.68406544 L260.994919,-9.01503598 C260.911141,-5.17508562 260.994919,-1.33513526 261.078698,2.58844378 L261.078698,2.58844378 Z M283.307965,-14.1076743 L282.639482,-8.68226351 L275.451972,-8.51500615 L276.288013,-14.8603325 C277.792538,-14.6913328 281.218735,-14.3585604 283.307965,-14.1076743 L283.307965,-14.1076743 Z M273.697857,-8.51500615 L264.504895,-8.26586236 C264.504895,-10.9367534 264.588674,-13.5240158 264.672453,-16.0276495 L274.533898,-15.0258476 L273.697857,-8.51500615 Z M286.819687,-43.4073318 L283.475523,-15.8603921 L276.45557,-16.6949367 L279.965547,-44.4927624 L286.819687,-43.4073318 Z M278.211431,-44.6600198 L277.291611,-37.5655199 L266.176978,-39.5673815 C266.428314,-42.3219012 266.677904,-44.6600198 266.845461,-46.2454803 L278.211431,-44.6600198 Z M247.290129,-33.8091982 L249.964064,-48.6672275 L263.417518,-46.7455101 C263.084149,-43.7418466 262.499444,-38.7328369 261.996772,-32.3892529 L247.290129,-33.8091982 Z M250.965917,-31.7202234 L253.723631,-22.7876347 L245.11712,-21.7039463 L247.038793,-32.0547381 L250.965917,-31.7202234 Z M243.36126,-31.8038521 L240.771103,-17.863996 L210.015613,-21.3694316 L210.685842,-25.0421246 L243.36126,-31.8038521 Z M227.232125,-41.7382427 L229.572691,-30.7184215 L211.186769,-26.8802134 L213.609368,-39.9018962 L227.232125,-41.7382427 Z M167.47875,-43.4909605 L207.257899,-37.6491486 L205.920932,-30.385649 L166.307595,-37.3128916 L167.47875,-43.4909605 Z M165.974226,-35.6438024 L183.775443,-32.5565102 L182.771844,-25.3766393 L164.385922,-27.2147281 L165.974226,-35.6438024 Z M109.56327,-27.0474707 L101.204605,-9.68406544 L74.7968774,-21.4530603 L75.7166972,-31.8874808 L109.56327,-27.0474707 Z M72.2067209,-32.3892529 L69.866155,-5.00782826 L61.7588256,-5.50960035 L59.5037837,-34.309228 L72.2067209,-32.3892529 Z M60.0047102,-5.50960035 L49.3072242,-6.09325887 L49.4747815,-13.2731298 L59.3362264,-13.2731298 L60.0047102,-5.50960035 Z M57.7479229,-34.4764854 L59.2524477,-15.1094762 L49.5585602,-15.1094762 L50.1432653,-35.561916 L57.7479229,-34.4764854 Z M18.3859221,-24.0403227 L20.4751521,-39.7346388 L37.0214348,-37.3965202 L34.9339502,-22.5384909 L18.3859221,-24.0403227 Z M38.693517,-37.1473765 L44.2944686,-36.3128319 L43.8755753,-21.7039463 L36.604287,-22.3712335 L38.693517,-37.1473765 Z M17.4661024,-17.0294514 L18.2201102,-22.3712335 L34.7663929,-20.8694018 L34.0141305,-15.3603623 L17.4661024,-17.0294514 Z M35.6844672,-15.1931049 L36.4384751,-20.7021444 L43.8755753,-20.033115 L43.708018,-14.3585604 L35.6844672,-15.1931049 Z M16.1291348,-7.34594685 L16.9651759,-13.5240158 L33.5969826,-11.8531844 L33.261868,-6.17688755 L16.1291348,-7.34594685 Z M35.351098,-11.685927 L43.6242394,-10.8531247 L42.9557556,11.9374336 L33.9303518,12.6047208 L35.351098,-11.685927 Z M15.8795443,-5.59322904 L33.1780894,-4.42416974 L32.1762364,12.7719782 L13.2038638,14.1901813 L15.8795443,-5.59322904 Z M48.8062977,12.5210921 L49.2234456,-2.67145193 L59.671341,-2.08779341 L55.492881,14.4410673 L48.8062977,12.5210921 Z M59.420005,6.2593945 L68.7805234,8.09748326 L67.9444823,18.1137603 L57.1632177,14.9428394 L59.420005,6.2593945 Z M42.8737223,15.4428692 L42.2034932,39.317116 L36.1033605,40.3189179 L34.0141305,16.1118987 L42.8737223,15.4428692 Z M32.2582697,16.1955274 L34.3474997,40.5698039 L25.4058745,42.0716357 L22.6481608,16.944701 L32.2582697,16.1955274 Z M6.85239513,18.1137603 L19.2219632,17.1973293 L21.979677,42.6570365 L11.3659697,44.4097543 L6.85239513,18.1137603 Z M31.5897859,44.5770117 L42.1197145,42.8242938 L41.2836734,73.6257831 C38.6097383,72.9584959 34.515057,71.8748076 29.6681132,70.2858626 L31.5897859,44.5770117 Z M9.19296106,79.8874808 L13.622757,68.3676297 C15.3768724,69.1185456 17.0489546,69.7858328 18.80307,70.3712335 L15.9633229,82.4747431 L9.19296106,79.8874808 Z M22.0634556,71.5385506 C30.336597,74.46207 37.440328,76.3803029 41.1178615,77.2165897 L40.9503042,84.478347 L28.8320721,91.5728469 L19.1381846,84.2274609 L22.0634556,71.5385506 Z M16.3804708,96.0818268 L18.7210367,86.0638074 L27.7464405,92.9091636 L25.156284,99.2527476 L16.3804708,96.0818268 Z M26.7428421,99.8381484 L29.1671867,93.9945942 L37.9412545,100.672693 C37.3565494,101.507238 36.9394015,102.427153 36.604287,103.427213 L26.7428421,99.8381484 Z M26.4094729,103.427213 L35.8520245,106.850762 L35.8520245,107.685307 C35.8520245,109.105252 36.1033605,110.439826 36.5205083,111.692514 L28.0798097,115.783351 L26.4094729,103.427213 Z M12.0344535,107.852564 L25.4058745,109.354396 L26.4094729,116.616153 L15.8795443,121.79242 L12.0344535,107.852564 Z M28.5824816,122.041564 L39.529558,116.699782 C41.3674521,118.53787 43.708018,119.788816 46.2981745,120.20696 L44.6278378,130.139608 L28.5824816,122.041564 Z M7.8559935,132.22684 L14.0399048,129.223177 L16.9651759,139.404969 L10.5299286,141.0758 L7.8559935,132.22684 Z M15.3768724,156.435602 L11.1146338,142.661261 L17.4661024,140.992172 L22.1472343,157.353775 L15.3768724,156.435602 Z M25.906801,158.021062 L17.2165119,127.635974 L26.5770302,123.045108 L36.6880656,128.219633 L32.2582697,158.939236 L25.906801,158.021062 Z M5.43164891,158.606463 L22.5643821,161.026468 L21.3949718,169.540913 L8.02355079,167.539052 L5.43164891,158.606463 Z M10.9488219,177.4717 L8.60825593,169.457285 L21.2274146,171.37726 L20.1417829,179.224418 L10.9488219,177.4717 Z" id="Fill-1" fill="#EEEEEF" mask="url(#mask-2)"></path>
            </g>
        </g>
    </g>
</svg>