<?xml version="1.0" encoding="UTF-8"?>
<svg width="46px" height="39px" viewBox="0 0 46 39" version="1.1" xmlns="http://www.w3.org/2000/svg" xmlns:xlink="http://www.w3.org/1999/xlink">
    <!-- Generator: Sketch 53.2 (72643) - https://sketchapp.com -->
    <title>Group 16</title>
    <desc>Created with Sketch.</desc>
    <defs>
        <polygon id="path-1" points="0 0.392727273 45.69105 0.392727273 45.69105 38.1818182 0 38.1818182"></polygon>
    </defs>
    <g id="Page-1" stroke="none" stroke-width="1" fill="none" fill-rule="evenodd">
        <g id="16-copy" transform="translate(-137.000000, -628.000000)">
            <g id="Group-16" transform="translate(137.000000, 628.000000)">
                <path d="M41.1823038,25.4301818 L26.2887269,25.4301818 C25.9561115,25.4301818 25.6867654,25.7010909 25.6867654,26.0356364 C25.6867654,26.3701818 25.9561115,26.6410909 26.2887269,26.6410909 L41.1823038,26.6410909 C41.5149192,26.6410909 41.7842654,26.3701818 41.7842654,26.0356364 C41.7842654,25.7010909 41.5149192,25.4301818 41.1823038,25.4301818" id="Fill-1" fill="#4D354D"></path>
                <path d="M41.1823038,21.3481818 L26.2887269,21.3481818 C25.9561115,21.3481818 25.6867654,21.6190909 25.6867654,21.9536364 C25.6867654,22.2881818 25.9561115,22.5590909 26.2887269,22.5590909 L41.1823038,22.5590909 C41.5149192,22.5590909 41.7842654,22.2881818 41.7842654,21.9536364 C41.7842654,21.6190909 41.5149192,21.3481818 41.1823038,21.3481818" id="Fill-3" fill="#4D354D"></path>
                <path d="M12.3942615,28.6405455 C12.3942615,29.0150909 12.0833385,29.3205455 11.7001077,29.3205455 C11.3168769,29.3205455 11.0041462,29.0150909 11.0041462,28.6405455 L11.0041462,17.126 C11.0041462,16.7496364 11.3168769,16.4441818 11.7001077,16.4441818 C12.0833385,16.4441818 12.3942615,16.7496364 12.3942615,17.126 L12.3942615,28.6405455 Z M14.6394154,7.30963636 C14.4116462,7.30963636 14.2290692,7.48963636 14.2290692,7.71145455 L14.2290692,14.1332727 C14.2290692,14.7750909 13.7120692,15.2969091 13.0667231,15.3332727 L13.0667231,7.71145455 C13.0667231,7.48963636 12.8841462,7.30963636 12.6545692,7.30963636 C12.4286077,7.30963636 12.2442231,7.48963636 12.2442231,7.71145455 L12.2442231,15.3405455 L11.1053769,15.3405455 L11.1053769,7.71145455 C11.1053769,7.48963636 10.9209923,7.30963636 10.6950308,7.30963636 C10.4672615,7.30963636 10.2828769,7.48963636 10.2828769,7.71145455 L10.2828769,15.3241818 C9.68272308,15.2423636 9.21814615,14.7423636 9.21814615,14.1332727 L9.21814615,7.71145455 C9.21814615,7.48963636 9.03556923,7.30963636 8.8078,7.30963636 C8.58003077,7.30963636 8.39564615,7.48963636 8.39564615,7.71145455 L8.39564615,14.1332727 C8.39564615,15.1969091 9.24526154,16.0623636 10.3154154,16.1332727 C10.3515692,16.1496364 10.3841077,16.1750909 10.4220692,16.1896364 C10.2214154,16.4514545 10.0984923,16.7732727 10.0984923,17.126 L10.0984923,28.6405455 C10.0984923,29.5041818 10.8161462,30.2078182 11.7001077,30.2078182 C12.5822615,30.2078182 13.2999154,29.5041818 13.2999154,28.6405455 L13.2999154,17.126 C13.2999154,16.7732727 13.1769923,16.4514545 12.9763385,16.1896364 C13.0106846,16.1769091 13.0396077,16.1532727 13.0739538,16.1387273 C14.1694154,16.0969091 15.0515692,15.2169091 15.0515692,14.1332727 L15.0515692,7.71145455 C15.0515692,7.48963636 14.8671846,7.30963636 14.6394154,7.30963636 L14.6394154,7.30963636 Z" id="Fill-5" fill="#4D354D"></path>
                <g id="Group-9" transform="translate(0.000000, 0.425818)">
                    <mask id="mask-2" fill="white">
                        <use xlink:href="#path-1"></use>
                    </mask>
                    <g id="Clip-8"></g>
                    <path d="M44.4871269,34.0936364 L25.7052038,34.0936364 C24.8429346,34.0936364 24.0529731,34.4118182 23.4473962,34.9390909 L23.4473962,3.87545455 C23.4473962,2.62272727 24.4597038,1.60272727 25.7052038,1.60272727 L42.2275115,1.60272727 C43.4730115,1.60272727 44.4871269,2.62272727 44.4871269,3.87545455 L44.4871269,34.0936364 Z M22.2434731,34.9390909 C21.6360885,34.4118182 20.8461269,34.0936364 19.9838577,34.0936364 L1.20374231,34.0936364 L1.20374231,3.87545455 C1.20374231,2.62272727 2.21785769,1.60272727 3.46335769,1.60272727 L19.9838577,1.60272727 C21.2293577,1.60272727 22.2434731,2.62272727 22.2434731,3.87545455 L22.2434731,34.9390909 Z M42.2275115,0.391818182 L25.7052038,0.391818182 C24.51755,0.391818182 23.4690885,0.997272727 22.8454346,1.91727273 C22.2217808,0.997272727 21.1733192,0.391818182 19.9838577,0.391818182 L3.46335769,0.391818182 C1.55443462,0.391818182 -0.000180769231,1.95545455 -0.000180769231,3.87545455 L-0.000180769231,34.6990909 C-0.000180769231,35.0336364 0.270973077,35.3045455 0.601780769,35.3045455 L19.9838577,35.3045455 C21.2293577,35.3045455 22.2434731,36.3245455 22.2434731,37.5772727 C22.2434731,37.91 22.5128192,38.1827273 22.8454346,38.1827273 C23.1762423,38.1827273 23.4473962,37.91 23.4473962,37.5772727 C23.4473962,36.3245455 24.4597038,35.3045455 25.7052038,35.3045455 L45.0890885,35.3045455 C45.4217038,35.3045455 45.69105,35.0336364 45.69105,34.6990909 L45.69105,3.87545455 C45.69105,1.95545455 44.1382423,0.391818182 42.2275115,0.391818182 L42.2275115,0.391818182 Z" id="Fill-7" fill="#4D354D" mask="url(#mask-2)"></path>
                </g>
                <path d="M41.1823038,9.10036364 L26.2887269,9.10036364 C25.9561115,9.10036364 25.6867654,9.37127273 25.6867654,9.70581818 C25.6867654,10.0403636 25.9561115,10.3112727 26.2887269,10.3112727 L41.1823038,10.3112727 C41.5149192,10.3112727 41.7842654,10.0403636 41.7842654,9.70581818 C41.7842654,9.37127273 41.5149192,9.10036364 41.1823038,9.10036364" id="Fill-10" fill="#4D354D"></path>
                <path d="M41.1823038,17.2652727 L26.2887269,17.2652727 C25.9561115,17.2652727 25.6867654,17.5361818 25.6867654,17.8707273 C25.6867654,18.2052727 25.9561115,18.4761818 26.2887269,18.4761818 L41.1823038,18.4761818 C41.5149192,18.4761818 41.7842654,18.2052727 41.7842654,17.8707273 C41.7842654,17.5361818 41.5149192,17.2652727 41.1823038,17.2652727" id="Fill-12" fill="#4D354D"></path>
                <path d="M41.1823038,13.1823636 L26.2887269,13.1823636 C25.9561115,13.1823636 25.6867654,13.4532727 25.6867654,13.7878182 C25.6867654,14.1223636 25.9561115,14.3932727 26.2887269,14.3932727 L41.1823038,14.3932727 C41.5149192,14.3932727 41.7842654,14.1223636 41.7842654,13.7878182 C41.7842654,13.4532727 41.5149192,13.1823636 41.1823038,13.1823636" id="Fill-14" fill="#4D354D"></path>
            </g>
        </g>
    </g>
</svg>