<?xml version="1.0" encoding="UTF-8"?>
<svg width="58px" height="55px" viewBox="0 0 58 55" version="1.1" xmlns="http://www.w3.org/2000/svg" xmlns:xlink="http://www.w3.org/1999/xlink">
    <!-- Generator: Sketch 53.2 (72643) - https://sketchapp.com -->
    <title>Message icon</title>
    <desc>Created with Sketch.</desc>
    <defs>
        <polygon id="path-1" points="0 0.5 30 0.5 30 22.5 0 22.5"></polygon>
    </defs>
    <g id="Page-1" stroke="none" stroke-width="1" fill="none" fill-rule="evenodd">
        <g id="16-copy" transform="translate(-241.000000, -697.000000)">
            <g id="Message-icon" transform="translate(244.000000, 699.000000)">
                <g id="Group-3" fill="#5BA3B1">
                    <path d="M1.0465375,33.80096 C1.0465375,30.27136 1.04335,26.74816 1.0465375,23.21856 C1.0592875,12.53056 7.679725,3.79776 17.9626,1.03616 C19.6201,0.58816 21.373225,0.34496 23.0912875,0.30336 C25.8006625,0.24256 28.5706,0.11776 31.2194125,0.56896 C40.4791,2.14976 46.7776,7.51296 49.5220375,16.52416 C53.4745375,29.48416 45.48985,42.65856 32.28085,45.40096 C30.9389125,45.67936 29.5491625,45.82336 28.1785375,45.83936 C25.3799125,45.87456 22.5749125,46.03136 19.7954125,45.50656 C17.54185,45.07776 15.3839125,44.39296 13.3566625,43.31456 C12.1741,42.68736 10.98835,42.19136 9.604975,42.30016 C8.406475,42.39936 7.39285,42.86336 6.47485,43.60256 C5.25085,44.59136 4.0236625,45.57056 2.7996625,46.55296 C2.4171625,46.86016 2.0410375,47.16416 1.50235,46.89856 C0.99235,46.64256 0.998725,46.17536 0.998725,45.70816 C1.0019125,41.73696 1.0019125,37.76896 1.0019125,33.80096 L1.0465375,33.80096 Z" id="Fill-1"></path>
                </g>
                <g id="Group-3" transform="translate(11.000000, 11.500000)">
                    <mask id="mask-2" fill="white">
                        <use xlink:href="#path-1"></use>
                    </mask>
                    <g id="Clip-2"></g>
                    <path d="M15.4892555,16.9335503 L27.4769561,5.59396708 C27.7760734,5.31109054 27.7995008,4.82809856 27.5292493,4.51500766 C27.2589979,4.20191676 26.7975624,4.17739496 26.4980268,4.46070938 L14.9997908,15.3370056 L3.50155485,4.46070938 C3.20243756,4.17739496 2.74100208,4.20191676 2.47075065,4.51500766 C2.20008088,4.82809856 2.22392659,5.31109054 2.52262554,5.59396708 L14.5103262,16.9335503 C14.649217,17.0649171 14.8245039,17.1310384 14.9997908,17.1310384 C15.1750777,17.1310384 15.3503647,17.0649171 15.4892555,16.9335503 L15.4892555,16.9335503 Z M1.46002705,20.9717661 L28.5395546,20.9717661 L28.5395546,2.0286718 L1.46002705,2.0286718 L1.46002705,20.9717661 Z M29.2695681,22.5 L0.730013527,22.5 C0.326728117,22.5 0,22.1580084 0,21.735883 L0,1.26411696 C0,0.8419916 0.326728117,0.5 0.730013527,0.5 L29.2695681,0.5 C29.6728535,0.5 30,0.8419916 30,1.26411696 L30,21.735883 C30,22.1580084 29.6728535,22.5 29.2695681,22.5 L29.2695681,22.5 Z" id="Fill-1" fill="#FEFEFE" mask="url(#mask-2)"></path>
                </g>
            </g>
        </g>
    </g>
</svg>