<?xml version="1.0" encoding="UTF-8"?>
<svg width="21px" height="24px" viewBox="0 0 21 24" version="1.1" xmlns="http://www.w3.org/2000/svg" xmlns:xlink="http://www.w3.org/1999/xlink">
    <!-- Generator: Sketch 53.2 (72643) - https://sketchapp.com -->
    <title>Fill 1</title>
    <desc>Created with Sketch.</desc>
    <g id="Page-1" stroke="none" stroke-width="1" fill="none" fill-rule="evenodd">
        <g id="15" transform="translate(-14.000000, -282.000000)" fill="#343A54">
            <path d="M24.486,287.03 C21.408,287.03 18.913,289.526 18.913,292.604 C18.913,295.681 21.408,298.177 24.486,298.177 C27.564,298.177 30.059,295.681 30.059,292.604 C30.059,289.526 27.564,287.03 24.486,287.03 M25.309,305.826 C24.783,306.041 24.206,306.058 23.668,305.872 C21.186,305.011 14,301.813 14,293.609 C14,287.197 18.702,282 24.5,282 C30.3,282 35,287.197 35,293.609 C35,301.218 27.77,304.821 25.309,305.826" id="Fill-1"></path>
        </g>
    </g>
</svg>