<?xml version="1.0" encoding="UTF-8"?>
<svg width="26px" height="19px" viewBox="0 0 26 19" version="1.1" xmlns="http://www.w3.org/2000/svg" xmlns:xlink="http://www.w3.org/1999/xlink">
    <!-- Generator: Sketch 53.2 (72643) - https://sketchapp.com -->
    <title>Travelers Icon</title>
    <desc>Created with Sketch.</desc>
    <defs>
        <polygon id="path-1" points="0.00132068311 0.334358182 16.609241 0.334358182 16.609241 18.8998969 0.00132068311 18.8998969"></polygon>
        <polygon id="path-3" points="0 0.208005 10.7238369 0.208005 10.7238369 11.80998 0 11.80998"></polygon>
    </defs>
    <g id="Page-1" stroke="none" stroke-width="1" fill="none" fill-rule="evenodd">
        <g id="5" transform="translate(-27.000000, -293.000000)">
            <g id="Travelers-Icon-P" transform="translate(27.000000, 293.000000)">
                <g id="Group-7">
                    <g id="Group-3" transform="translate(9.261290, 0.000000)">
                        <mask id="mask-2" fill="white">
                            <use xlink:href="#path-1"></use>
                        </mask>
                        <g id="Clip-2"></g>
                        <path d="M8.30544592,1.55794418 C11.3823074,1.55794418 13.8856622,4.16339509 13.8856622,7.366086 C13.8856622,8.91416782 13.2972979,10.3189533 12.3454156,11.3612024 C12.2348083,11.4821624 12.1195787,11.595906 12.0013776,11.705526 C11.9762846,11.7288933 11.9521822,11.7536351 11.926759,11.7763151 C11.8211044,11.8708151 11.7111575,11.9574115 11.6005503,12.0426333 C11.5563074,12.0766533 11.5133852,12.1134224 11.4678216,12.1460678 C11.3813169,12.2086096 11.2915104,12.2635915 11.2020342,12.3206351 C11.1293966,12.367026 11.0580797,12.4165096 10.9824706,12.4598078 C10.9260114,12.4921096 10.8662505,12.5192569 10.8084706,12.5498405 C10.6995142,12.6068842 10.5915484,12.6653024 10.47863,12.7151296 C10.4614611,12.7226896 10.443962,12.7281878 10.4267932,12.7354042 C9.77206452,13.0164987 9.05625427,13.1738842 8.30544592,13.1738842 C7.55364706,13.1738842 6.8368463,13.0161551 6.18145731,12.7343733 C6.16527894,12.7275005 6.14844023,12.722346 6.13226186,12.7151296 C6.01868311,12.6649587 5.90972676,12.6061969 5.80011006,12.548466 C5.74299051,12.5185696 5.68455028,12.4921096 5.62842125,12.4598078 C5.55248197,12.416166 5.48017457,12.3663387 5.40654649,12.3192605 C5.31806072,12.2629042 5.22891461,12.208266 5.14340038,12.1464115 C5.09717647,12.1130787 5.05359393,12.075966 5.0086907,12.0412587 C4.89874383,11.9563805 4.78945731,11.8704715 4.684463,11.7766587 C4.65837951,11.7536351 4.63394687,11.7285496 4.60819355,11.7044951 C4.49065275,11.5952187 4.37575332,11.4818187 4.26547628,11.3612024 C3.31359393,10.3192969 2.72489943,8.91416782 2.72489943,7.366086 C2.72489943,4.16339509 5.22825427,1.55794418 8.30544592,1.55794418 M15.0614004,7.366086 C15.0614004,3.48883691 12.0304326,0.334255091 8.30544592,0.334255091 C4.58012903,0.334255091 1.54949146,3.48883691 1.54949146,7.366086 C1.54949146,8.987706 2.08469829,10.4780569 2.97417837,11.6691005 C1.10343074,13.3041224 0.00132068311,15.731226 0.00132068311,18.2882242 C0.00132068311,18.6260187 0.264466793,18.8998969 0.589024668,18.8998969 C0.913912713,18.8998969 1.17705882,18.6260187 1.17705882,18.2882242 C1.17705882,16.0748624 2.13752562,13.9728387 3.76856926,12.5687405 C3.79960531,12.5979496 3.83295256,12.6230351 3.86431879,12.6515569 C3.95544592,12.7347169 4.04822391,12.8154715 4.14364326,12.8934769 C4.22750664,12.9625478 4.31335104,13.028526 4.39985579,13.0931296 C4.47612524,13.149486 4.55272486,13.2054987 4.6313055,13.2587624 C4.74455408,13.3357369 4.85978368,13.4079005 4.97666414,13.4773151 C5.03741556,13.5133969 5.09750664,13.5494787 5.15957875,13.5834987 C5.29659962,13.6594424 5.4369222,13.7285133 5.57856546,13.7941478 C5.62941176,13.8175151 5.67926755,13.8419133 5.73077419,13.8642496 C5.88298292,13.9295405 6.03816319,13.9876151 6.19466414,14.0412224 C6.24352941,14.0580605 6.29140417,14.0766169 6.34059962,14.0920805 C6.49941176,14.1422515 6.66086528,14.1838315 6.82363947,14.2216315 C6.87613662,14.2340024 6.92731309,14.2487787 6.98014042,14.2597751 C7.14423529,14.2937951 7.31064137,14.3181933 7.47803795,14.3391551 C7.53152562,14.3460278 7.58402277,14.3566805 7.63817078,14.3621787 C7.85839469,14.3845151 8.08059962,14.3975733 8.30544592,14.3975733 C8.53029222,14.3975733 8.75249715,14.3845151 8.97272106,14.3621787 C9.02686907,14.3566805 9.07936622,14.3460278 9.13318406,14.3391551 C9.30058065,14.3178496 9.46665655,14.2937951 9.63042125,14.2597751 C9.68357875,14.2487787 9.73541556,14.2336587 9.78791271,14.2216315 C9.95035674,14.1838315 10.1114801,14.1422515 10.2696319,14.0924242 C10.3194877,14.0766169 10.3676926,14.0577169 10.416888,14.0408787 C10.5730588,13.9872715 10.7279089,13.9295405 10.8797875,13.8642496 C10.9312941,13.8419133 10.9818102,13.8171715 11.0329867,13.7934605 C11.1742998,13.7285133 11.313962,13.6594424 11.4509829,13.5838424 C11.513055,13.5494787 11.5734763,13.5130533 11.6345579,13.4769715 C11.7514383,13.4075569 11.8663378,13.3357369 11.9792562,13.2587624 C12.0578368,13.2054987 12.1344364,13.1498296 12.2107059,13.0931296 C12.2975408,13.028526 12.3833852,12.9625478 12.4675787,12.8931333 C12.5626679,12.8154715 12.6544554,12.7354042 12.7449222,12.6529315 C12.7769488,12.6237224 12.8109564,12.5982933 12.8423226,12.5687405 C14.4733662,13.9728387 15.433833,16.0748624 15.433833,18.2882242 C15.433833,18.6260187 15.6969791,18.8998969 16.021537,18.8998969 C16.346425,18.8998969 16.609241,18.6260187 16.609241,18.2882242 C16.609241,15.731226 15.5074611,13.3041224 13.6367135,11.6691005 C14.5261935,10.4780569 15.0614004,8.987706 15.0614004,7.366086 Z" id="Fill-1" fill="#343A54" mask="url(#mask-2)"></path>
                    </g>
                    <g id="Group-6" transform="translate(0.000000, 3.436364)">
                        <mask id="mask-4" fill="white">
                            <use xlink:href="#path-3"></use>
                        </mask>
                        <g id="Clip-5"></g>
                        <path d="M5.36203452,0.972739091 C7.34874713,0.972739091 8.96531428,2.60109818 8.96531428,4.60230273 C8.96531428,5.56983 8.58521868,6.44782091 7.97063129,7.09896409 C7.89932191,7.17446864 7.82469581,7.24563 7.74841135,7.31411864 C7.73215944,7.32881864 7.71690255,7.34418682 7.6999873,7.35855273 C7.6323263,7.41768682 7.56101692,7.47147545 7.48970754,7.52493 C7.46085211,7.54597773 7.43332337,7.56903 7.4038046,7.58940955 C7.34808378,7.62849818 7.29004126,7.66290955 7.23266208,7.69865727 C7.18523305,7.72772318 7.1391307,7.75845955 7.09070666,7.78552091 C7.05389111,7.80590045 7.01541721,7.822605 6.97827,7.84164818 C6.90795563,7.87739591 6.83797293,7.91414591 6.76533686,7.94521636 C6.7543917,7.94989364 6.7427832,7.95323455 6.73150636,7.95791182 C6.3089568,8.13364364 5.84693833,8.23186636 5.36203452,8.23186636 C4.87646736,8.23186636 4.41378554,8.13330955 3.99057264,7.95724364 C3.97995915,7.95290045 3.96901399,7.94955955 3.95873217,7.94521636 C3.88543276,7.91381182 3.81478672,7.87706182 3.74414067,7.84098 C3.70732513,7.82193682 3.66951457,7.80556636 3.63336238,7.78552091 C3.58427499,7.75845955 3.53784097,7.727055 3.49008026,7.697655 C3.43303276,7.66224136 3.37532191,7.62816409 3.32026443,7.58974364 C3.29041399,7.56903 3.26222191,7.54564364 3.23303481,7.52392773 C3.1620571,7.47114136 3.09141106,7.41735273 3.02408173,7.35888682 C3.00716648,7.34418682 2.99157792,7.32848455 2.97466267,7.31345045 C2.89870988,7.24529591 2.82441545,7.17446864 2.75343774,7.09896409 C2.13885035,6.44782091 1.75875475,5.56983 1.75875475,4.60230273 C1.75875475,2.60109818 3.37499023,0.972739091 5.36203452,0.972739091 M8.80445358,7.29140045 C9.37857704,6.54738 9.7241788,5.61560045 9.7241788,4.60230273 C9.7241788,2.17947545 7.76731663,0.208005 5.36203452,0.208005 C2.9567524,0.208005 0.999558563,2.17947545 0.999558563,4.60230273 C0.999558563,5.61560045 1.34516032,6.54738 1.91961545,7.29140045 C0.711667654,8.31338455 -9.95014663e-05,9.82982318 -9.95014663e-05,11.42778 C-9.95014663e-05,11.6389255 0.170048006,11.80998 0.379664428,11.80998 C0.58928085,11.80998 0.759096686,11.6389255 0.759096686,11.42778 C0.759096686,10.0446436 1.37932249,8.73099818 2.43237968,7.85367545 C2.45261164,7.87171636 2.47417029,7.88741864 2.49440226,7.90545955 C2.55310812,7.95724364 2.61314067,8.00802545 2.67449991,8.05680273 C2.72889405,8.09990045 2.7842832,8.14099364 2.84000402,8.18141864 C2.88942308,8.21683227 2.93884214,8.25157773 2.98958789,8.28465273 C3.06255563,8.33309591 3.13718173,8.37819818 3.21280284,8.42129591 C3.25194009,8.44401409 3.29074566,8.46673227 3.33054625,8.48778 C3.41943422,8.53522091 3.50964889,8.57831864 3.60119023,8.61941182 C3.63402572,8.63411182 3.66619786,8.64948 3.69936501,8.66317773 C3.79787147,8.70427091 3.89803628,8.74035273 3.9991961,8.77376182 C4.0307049,8.78411864 4.06155035,8.79581182 4.09339082,8.80550045 C4.19587733,8.836905 4.3000222,8.86296409 4.40516208,8.88635045 C4.43899258,8.89403455 4.47215974,8.90372318 4.50632191,8.910405 C4.61212513,8.93178682 4.71958672,8.94682091 4.82771164,8.96018455 C4.86253716,8.96419364 4.89636765,8.97087545 4.93119317,8.97455045 C5.07348026,8.98858227 5.21709405,8.99660045 5.36203452,8.99660045 C5.50697499,8.99660045 5.65058877,8.98858227 5.79287587,8.97455045 C5.82770138,8.97087545 5.86186355,8.96419364 5.89635739,8.95985045 C6.00448232,8.94682091 6.11161223,8.93145273 6.21741545,8.910405 C6.2519093,8.90372318 6.28540812,8.89403455 6.31923862,8.88635045 C6.42404683,8.86296409 6.5281917,8.836905 6.63034654,8.80583455 C6.66251868,8.79581182 6.69369581,8.78411864 6.7252046,8.77376182 C6.82636443,8.74035273 6.92619757,8.70427091 7.02404067,8.66317773 C7.0575395,8.64948 7.09004331,8.63377773 7.12321047,8.61907773 C7.21442015,8.57831864 7.30463481,8.53522091 7.39319111,8.48811409 C7.43332337,8.46673227 7.47212894,8.44368 7.51159786,8.42129591 C7.5868873,8.37786409 7.66118173,8.33309591 7.73414947,8.28498682 C7.78489522,8.25157773 7.83431428,8.21683227 7.88373334,8.18141864 C7.93945416,8.14099364 7.99517499,8.09990045 8.04956912,8.05646864 C8.11092836,8.00802545 8.17029757,7.95791182 8.22867176,7.90612773 C8.2492354,7.88808682 8.27112572,7.87205045 8.29168935,7.85367545 C9.34441487,8.73099818 9.96464067,10.0446436 9.96464067,11.42778 C9.96464067,11.6389255 10.1347882,11.80998 10.3440729,11.80998 C10.554021,11.80998 10.7238369,11.6389255 10.7238369,11.42778 C10.7238369,9.82982318 10.0124014,8.31338455 8.80445358,7.29140045" id="Fill-4" fill="#343A54" mask="url(#mask-4)"></path>
                    </g>
                </g>
            </g>
        </g>
    </g>
</svg>